<svg xmlns="http://www.w3.org/2000/svg" width="430" height="430" style="width:100%;height:100%;transform:translate3d(0,0,0);content-visibility:visible" viewBox="0 0 430 430"><defs><clipPath id="a"><path d="M0 0h430v430H0z"/></clipPath><clipPath id="f"><path d="M0 0h430v430H0z"/></clipPath><clipPath id="g"><path d="M0 0h430v430H0z"/></clipPath><clipPath id="d"><path d="M0 0h430v430H0z"/></clipPath><clipPath id="e"><path d="M0 0h430v430H0z"/></clipPath><clipPath id="b"><path d="M0 0h430v430H0z"/></clipPath><clipPath id="c"><path d="M0 0h430v430H0z"/></clipPath></defs><g clip-path="url(#a)"><g clip-path="url(#b)" style="display:none"><g fill="none" clip-path="url(#c)" style="display:none"><path class="secondary" style="display:none"/><path class="primary" style="display:none"/><path class="primary" style="display:none"/><path class="primary" style="display:none"/><path class="secondary" style="display:none"/><path class="primary" style="display:none"/><path class="primary" style="display:none"/><path class="secondary" style="display:none"/><path class="primary" style="display:none"/><path class="secondary" style="display:none"/><path class="secondary" style="display:none"/><path class="secondary" style="display:none"/><path class="primary" style="display:none"/><path class="secondary" style="display:none"/><path class="primary" style="display:none"/><path class="primary" style="display:none"/><path class="secondary" style="display:none"/><path class="secondary" style="display:none"/></g></g><g clip-path="url(#d)" style="display:block"><g fill="none" clip-path="url(#e)" style="display:block"><path class="secondary" style="display:none"/><path stroke="#121331" stroke-linecap="round" stroke-width="12" d="M-146.219 22.989c6.874 43.922 33.129 81.418 69.741 103.464m160.479 21.044 114.368-.004" class="primary" style="display:block" transform="translate(201 212.5)"/><path stroke="#121331" stroke-linecap="round" stroke-linejoin="round" stroke-width="12" d="m35 17.5-35-35-35 35" class="primary" style="display:block" transform="rotate(90 16.25 376.25)"/><path stroke="#08A88A" stroke-linecap="round" stroke-width="12" d="M-26.44-145.226C-95.347-133.001-147.72-72.934-147.999-.581" class="secondary" style="display:block" transform="translate(201 212.5)"/><path stroke="#121331" stroke-linecap="round" stroke-width="12" d="M145.063-23.965C133.75-93.204 74.228-146.238 2.085-147.478" class="primary" style="display:block" transform="translate(201 212.5)"/><path class="primary" style="display:none"/><path stroke="#08A88A" stroke-linecap="round" stroke-width="12" d="M-180.875 147.5H-.156c79.77-.182 144.666-63.687 147.086-142.912" class="secondary" style="display:block" transform="translate(201 212.5)"/><path class="primary" style="display:none"/><path class="secondary" style="display:none"/><path class="secondary" style="display:none"/><path stroke="#08A88A" stroke-linecap="round" stroke-linejoin="round" stroke-width="12" d="m35 17.5-35-35-35 35" class="secondary" style="display:block" transform="rotate(180 26.5 97.75)"/><path class="primary" style="display:none"/><path class="secondary" style="display:none"/><path class="primary" style="display:none"/><path stroke="#121331" stroke-linecap="round" stroke-linejoin="round" stroke-width="12" d="m35 17.5-35-35-35 35" class="primary" style="display:block" transform="rotate(-90 141.25 -76.25)"/><path stroke="#08A88A" stroke-linecap="round" stroke-linejoin="round" stroke-width="12" d="m35 17.5-35-35-35 35" class="secondary" style="display:block" transform="translate(348.301 229.947)"/><path class="secondary" style="display:none"/></g></g><g clip-path="url(#f)" style="display:none"><g fill="none" clip-path="url(#g)" style="display:none"><path class="secondary" style="display:none"/><path class="secondary" style="display:none"/><path class="secondary" style="display:none"/><path class="primary" style="display:none"/><path class="primary" style="display:none"/><path class="primary" style="display:none"/><path class="secondary" style="display:none"/><path class="secondary" style="display:none"/><path class="secondary" style="display:none"/><path class="secondary" style="display:none"/><path class="secondary" style="display:none"/><path class="primary" style="display:none"/><path class="primary" style="display:none"/><path class="primary" style="display:none"/><path class="primary" style="display:none"/><path class="primary" style="display:none"/><path class="primary" style="display:none"/><path class="primary" style="display:none"/><path class="primary" style="display:none"/></g></g></g></svg>